<?xml version="1.0" encoding="UTF-8" standalone="no"?>
<svg width="80px" height="27px" viewBox="0 0 80 27" version="1.1" xmlns="http://www.w3.org/2000/svg" xmlns:xlink="http://www.w3.org/1999/xlink" xmlns:sketch="http://www.bohemiancoding.com/sketch/ns">
    <!-- Generator: Sketch 3.5.2 (25235) - http://www.bohemiancoding.com/sketch -->
    <title>app-store</title>
    <desc>Created with Sketch.</desc>
    <defs></defs>
    <g id="Page-1" stroke="none" stroke-width="1" fill="none" fill-rule="evenodd" sketch:type="MSPage">
        <g id="app-store" sketch:type="MSLayerGroup" transform="translate(1.000000, 1.000000)">
            <g id="Page-1">
                <g id="Store-Icons">
                    <g id="Apple-App-Store---Small">
                        <rect id="container" stroke="#FFFFFF" sketch:type="MSShapeGroup" x="0" y="0" width="78" height="25" rx="2"></rect>
                        <g id="Available-on-the" transform="translate(19.000000, 4.000000)" font-size="7" font-family="Myriad Pro" fill="#FFFFFF" sketch:type="MSTextLayer" font-weight="normal">
                            <text>
                                <tspan x="0" y="5">Available on the</tspan>
                            </text>
                        </g>
                        <g id="App-Store" transform="translate(19.000000, 10.000000)" font-size="12.8000002" font-family="Myriad Pro" fill="#FFFFFF" sketch:type="MSTextLayer" font-weight="normal">
                            <text>
                                <tspan x="0" y="10">App Store</tspan>
                            </text>
                        </g>
                        <path d="M7.28948057,4 C6.57732011,4 6,4.65126352 6,5.45776843 L6,20.5422316 C6,21.3473348 6.57668151,22 7.28948057,22 L13.7105194,22 C14.4226799,22 15,21.3487365 15,20.5422316 L15,5.45776843 C15,4.65266516 14.4233185,4 13.7105194,4 L7.28948057,4 L7.28948057,4 L7.28948057,4 Z M6.84375,6.36065574 L6.84375,19.6393443 L14.15625,19.6393443 L14.15625,6.36065574 L6.84375,6.36065574 L6.84375,6.36065574 L6.84375,6.36065574 Z M10.5,21.4098361 C10.8106602,21.4098361 11.0625,21.1456107 11.0625,20.8196721 C11.0625,20.4937336 10.8106602,20.2295082 10.5,20.2295082 C10.1893398,20.2295082 9.9375,20.4937336 9.9375,20.8196721 C9.9375,21.1456107 10.1893398,21.4098361 10.5,21.4098361 L10.5,21.4098361 L10.5,21.4098361 Z M9.375,5.18032787 C9.375,5.34329714 9.47167969,5.47540984 9.59896445,5.47540984 L11.4010355,5.47540984 C11.5247277,5.47540984 11.625,5.33853099 11.625,5.18032787 C11.625,5.0173586 11.5283203,4.8852459 11.4010355,4.8852459 L9.59896445,4.8852459 C9.4752723,4.8852459 9.375,5.02212474 9.375,5.18032787 L9.375,5.18032787 Z" id="iPhone" fill="#FFFFFF" sketch:type="MSShapeGroup"></path>
                    </g>
                </g>
            </g>
        </g>
    </g>
</svg>